<svg width="32" height="32" viewBox="0 0 32 32" fill="none" xmlns="http://www.w3.org/2000/svg">
<path d="M1.18375 19.2336C1.29956 19.3124 1.41634 19.3897 1.53991 19.4716L1.64824 19.5434C0.82635 20.3633 0.321834 21.2372 0.106976 22.2127C-0.0943053 23.127 0.168892 23.8977 0.889377 24.505C0.983991 24.5846 1.07985 24.6626 1.17807 24.7425L1.26742 24.8153C0.721342 25.5377 0.425153 26.2632 0.361846 27.0317C0.282885 27.9931 0.617011 28.6846 1.35481 29.0873C1.89895 29.3842 2.4338 29.6604 2.99706 29.7776C4.11368 30.0066 5.24212 30.1737 6.37717 30.2783C7.9611 30.4276 9.67829 30.5505 11.6274 30.6537C12.713 30.7112 13.9743 30.7676 15.2858 30.7676C15.488 30.7676 15.6912 30.7662 15.8953 30.7633C17.3824 30.7422 18.7074 30.6542 19.8741 29.7861C20.0078 29.6725 20.1748 29.6059 20.3501 29.5963C20.5252 29.5867 20.6986 29.6348 20.8438 29.7333C21.0596 29.8398 21.2925 29.9076 21.5319 29.9333C21.5834 29.9419 21.6347 29.9507 21.6852 29.9601C23.7224 30.3402 25.8078 30.2939 27.8244 30.2489C28.123 30.2423 28.4216 30.236 28.7201 30.2303C29.8273 30.2105 30.5955 29.5896 30.9414 28.4345C31.0618 28.046 31.1453 27.6472 31.1907 27.2431L31.2571 26.604C31.4041 25.191 31.5562 23.731 31.6572 22.2905C31.8873 19.0065 31.9629 15.6334 31.8819 12.2648C31.8658 11.6023 31.8276 10.9566 31.7683 10.3453C31.691 9.55058 31.3085 8.9563 30.662 8.62646C30.1277 8.35384 29.5222 8.04464 28.8851 7.90002C26.9511 7.46061 24.9591 7.56755 23.2013 7.66106C23.0223 7.67062 22.8374 7.67131 22.6585 7.67186C22.0628 7.67408 21.4478 7.67644 20.8506 7.99145C20.2516 6.51709 19.245 5.39876 18.3359 4.49735C17.9803 4.14484 17.6226 3.79419 17.2631 3.44537C16.6981 2.89431 16.1133 2.32454 15.5516 1.75256C14.6165 0.801702 13.4136 0.480177 11.874 0.769008C11.6216 0.81624 11.3812 0.913436 11.1669 1.05489C10.9527 1.19634 10.7688 1.37919 10.6262 1.59269C10.3193 2.05312 10.2079 2.61659 10.3164 3.15917C10.3802 3.51479 10.4858 3.86162 10.6311 4.19245C10.9652 4.92042 11.3277 5.63315 11.7328 6.42276C11.7838 6.52208 11.8373 6.62002 11.8909 6.71838C12.0906 7.04684 12.2414 7.40261 12.3387 7.77451C12.3143 7.78103 12.2916 7.78754 12.2703 7.79377C12.2161 7.81236 12.1597 7.82404 12.1025 7.82854C11.4238 7.83556 10.7449 7.84142 10.0662 7.84613C9.00932 7.85444 7.91662 7.8629 6.84206 7.87855C5.69776 7.89618 4.56128 8.07055 3.46433 8.39678C2.57786 8.64605 1.78214 9.1458 1.17266 9.83609C-0.0354487 11.2198 0.0113941 12.7885 1.29735 14.0314C1.30432 14.0482 1.30937 14.0656 1.31243 14.0835C1.31493 14.0942 1.31758 14.1054 1.32048 14.1174C0.691248 14.7572 0.260877 15.5655 0.0814756 16.4447C-0.180619 17.6196 0.190363 18.5573 1.18375 19.2336ZM3.55256 14.7267C4.02438 14.6177 4.34898 14.301 4.37974 13.9199C4.42129 13.4098 3.90375 13.2112 3.5947 13.0926C3.42844 13.0329 3.25846 12.9841 3.08587 12.9465C2.95884 12.916 2.82753 12.8844 2.70299 12.8441C2.11757 12.6549 1.93636 12.3315 2.07752 11.7281C2.17901 11.2519 2.42858 10.82 2.79051 10.4942C3.57292 9.80257 4.36601 9.45348 5.28639 9.39543L5.37808 9.38961C5.37997 9.38949 5.38186 9.38938 5.38375 9.38926C7.34909 9.26566 9.37988 9.13795 11.3818 9.3252C11.93 9.37066 12.4813 9.36352 13.0282 9.30386C13.401 9.26729 13.6456 9.15661 13.7762 8.96544C13.9009 8.78217 13.9174 8.53323 13.8248 8.20354C13.5772 7.36304 13.2839 6.53665 12.9464 5.72804C12.7888 5.33721 12.6098 4.94815 12.4366 4.57171C12.4353 4.56895 12.434 4.56619 12.4328 4.56343C12.2178 4.09673 11.9956 3.61396 11.8136 3.12703C11.6659 2.73237 11.6529 2.45642 11.7735 2.28367C11.8972 2.10622 12.1743 2.01881 12.6185 2.02421C13.422 2.02906 14.013 2.26677 14.4805 2.77226C14.9298 3.25794 15.3985 3.74044 15.8519 4.207C16.568 4.94369 17.3083 5.70546 17.9869 6.49604C19.3289 8.05919 19.9402 9.65088 19.8571 11.3621C19.8191 12.2412 19.8298 13.1217 19.8891 13.9996C19.9125 14.6826 19.8796 15.3665 19.7911 16.0444C19.748 16.4611 19.7036 16.8919 19.6869 17.3188C19.6245 18.9143 19.5865 20.5371 19.5498 22.1066L19.5498 22.1071C19.5492 22.1316 19.5486 22.1562 19.5481 22.1808C19.5266 23.0944 19.5052 24.0079 19.4789 24.9213L19.4776 24.96L19.4776 24.9607C19.4566 25.6923 19.4348 26.4487 19.3463 27.1833C19.1971 28.4212 18.7469 28.8746 17.5619 28.9798C16.642 29.0616 15.6986 29.071 14.7864 29.08L14.7856 29.08C14.4352 29.0835 14.0849 29.0869 13.735 29.0939C13.3637 29.1016 12.9865 29.0996 12.621 29.0976C12.6183 29.0976 12.6156 29.0976 12.6129 29.0976C12.4651 29.0968 12.317 29.0962 12.1686 29.0958L12.1671 29.0722L12.1053 29.0678C11.4156 29.017 10.7257 28.9677 10.0356 28.92C8.25172 28.7946 6.40708 28.6648 4.59707 28.4958C3.86592 28.4275 3.13282 28.1714 2.51221 27.9299C1.98068 27.723 1.87027 27.4951 1.99855 26.8701C2.07245 26.507 2.19738 26.1561 2.36955 25.8281C2.60076 25.3942 2.8918 25.2083 3.31764 25.2282C3.63926 25.2286 3.95466 25.1397 4.22873 24.9714C4.45037 24.8424 4.69142 24.564 4.69447 24.339C4.69752 24.114 4.45523 23.8248 4.23581 23.7057C3.91148 23.5482 3.56576 23.4394 3.20973 23.3826C2.6624 23.2708 2.29918 23.157 2.18074 22.9354C2.07684 22.7415 2.12962 22.4446 2.37537 21.8411C2.744 20.9369 3.24115 20.37 3.94071 20.0571C4.15664 19.9795 4.33919 19.8298 4.45759 19.6332C4.57599 19.4366 4.62302 19.2053 4.59071 18.9781C4.55719 18.4697 4.1779 18.2716 3.81136 18.1456C3.62462 18.0811 3.43123 18.03 3.24422 17.9807C3.24274 17.9803 3.24125 17.9799 3.23977 17.9795C3.04569 17.9282 2.84504 17.8752 2.65477 17.8076C2.06866 17.5998 1.92155 17.3623 1.99899 16.7509C2.14957 15.5648 2.62886 14.9403 3.55326 14.7263L3.55256 14.7267ZM23.7516 28.6528C23.0456 28.6245 22.3421 28.549 21.646 28.4267C20.9729 28.3159 20.9766 28.2743 21.0398 27.5667C21.1571 26.2533 21.253 24.8855 21.3332 23.3853L21.371 22.6813C21.3711 22.6803 21.3711 22.6793 21.3712 22.6783C21.4655 20.9338 21.5631 19.1284 21.5993 17.3517C21.6345 15.6334 21.6189 13.8858 21.6038 12.1957C21.6038 12.1944 21.6038 12.1931 21.6038 12.1918C21.6 11.7801 21.5966 11.3684 21.5934 10.9568C21.5856 10.6449 21.5623 10.3335 21.5234 10.0239C21.5096 9.89219 21.4946 9.75699 21.4819 9.61652C22.0389 9.6005 22.596 9.57391 23.1361 9.54814C23.1422 9.54785 23.1484 9.54755 23.1546 9.54726C24.8473 9.46594 26.446 9.3892 28.0723 9.60821C28.119 9.61458 28.1657 9.61915 28.2125 9.62359C28.285 9.63065 28.3533 9.63744 28.421 9.65019C29.921 9.935 30.1429 10.2043 30.1171 11.703L30.1056 12.368C30.1052 12.3963 30.1047 12.4247 30.1042 12.453C30.0431 16.0038 29.9801 19.673 29.8652 23.2804C29.8244 24.5652 29.6676 25.8698 29.5159 27.1315L29.4699 27.5149C29.3575 28.4569 29.1702 28.6413 28.2912 28.6727C26.776 28.7265 25.2796 28.6941 23.7523 28.6528H23.7516Z" fill="#3A353E"/>
<path d="M3.55256 14.7267C4.02438 14.6177 4.34898 14.301 4.37974 13.9199C4.42129 13.4098 3.90375 13.2112 3.5947 13.0926C3.42844 13.0329 3.25846 12.9841 3.08587 12.9465C2.95884 12.916 2.82753 12.8844 2.70299 12.8441C2.11757 12.6549 1.93636 12.3315 2.07752 11.7281C2.17901 11.2519 2.42858 10.82 2.79051 10.4942C3.57292 9.80257 4.36601 9.45348 5.28639 9.39543L5.37808 9.38961L5.38375 9.38926C7.34909 9.26566 9.37988 9.13795 11.3818 9.3252C11.93 9.37066 12.4813 9.36352 13.0282 9.30386C13.401 9.26729 13.6456 9.15661 13.7762 8.96544C13.9009 8.78217 13.9174 8.53323 13.8248 8.20354C13.5772 7.36304 13.2839 6.53665 12.9464 5.72804C12.7888 5.33721 12.6098 4.94815 12.4366 4.57171L12.4328 4.56343C12.2178 4.09673 11.9956 3.61396 11.8136 3.12703C11.6659 2.73237 11.6529 2.45642 11.7735 2.28367C11.8972 2.10622 12.1743 2.01881 12.6185 2.02421C13.422 2.02906 14.013 2.26677 14.4805 2.77226C14.9298 3.25794 15.3985 3.74044 15.8519 4.207C16.568 4.94369 17.3083 5.70546 17.9869 6.49604C19.3289 8.05919 19.9402 9.65088 19.8571 11.3621C19.8191 12.2412 19.8298 13.1217 19.8891 13.9996C19.9125 14.6826 19.8796 15.3665 19.7911 16.0444C19.748 16.4611 19.7036 16.8919 19.6869 17.3188C19.6245 18.9143 19.5865 20.5371 19.5498 22.1066L19.5498 22.1071L19.5481 22.1808C19.5266 23.0944 19.5052 24.0079 19.4789 24.9213L19.4776 24.96L19.4776 24.9607C19.4566 25.6923 19.4348 26.4487 19.3463 27.1833C19.1971 28.4212 18.7469 28.8746 17.5619 28.9798C16.642 29.0616 15.6986 29.071 14.7864 29.08L14.7856 29.08C14.4352 29.0835 14.0849 29.0869 13.735 29.0939C13.3637 29.1016 12.9865 29.0996 12.621 29.0976L12.6129 29.0976C12.4651 29.0968 12.317 29.0962 12.1686 29.0958L12.1671 29.0722L12.1053 29.0678C11.4156 29.017 10.7257 28.9677 10.0356 28.92C8.25172 28.7946 6.40708 28.6648 4.59707 28.4958C3.86592 28.4275 3.13282 28.1714 2.51221 27.9299C1.98068 27.723 1.87027 27.4951 1.99855 26.8701C2.07245 26.507 2.19738 26.1561 2.36955 25.8281C2.60076 25.3942 2.8918 25.2083 3.31764 25.2282C3.63926 25.2286 3.95466 25.1397 4.22873 24.9714C4.45037 24.8424 4.69142 24.564 4.69447 24.339C4.69752 24.114 4.45523 23.8248 4.23581 23.7057C3.91148 23.5482 3.56576 23.4394 3.20973 23.3826C2.6624 23.2708 2.29918 23.157 2.18074 22.9354C2.07684 22.7415 2.12962 22.4446 2.37537 21.8411C2.744 20.9369 3.24115 20.37 3.94071 20.0571C4.15664 19.9795 4.33919 19.8298 4.45759 19.6332C4.57599 19.4366 4.62302 19.2053 4.59071 18.9781C4.55719 18.4697 4.1779 18.2716 3.81136 18.1456C3.62462 18.0811 3.43123 18.03 3.24422 17.9807L3.23977 17.9795C3.04569 17.9282 2.84504 17.8752 2.65477 17.8076C2.06866 17.5998 1.92155 17.3623 1.99899 16.7509C2.14957 15.5648 2.62886 14.9403 3.55326 14.7263L3.55256 14.7267Z" fill="#FFCFAB"/>
<path d="M23.7516 28.6528C23.0456 28.6245 22.3421 28.549 21.646 28.4267C20.9729 28.3159 20.9766 28.2743 21.0398 27.5667C21.1571 26.2533 21.253 24.8855 21.3332 23.3853L21.371 22.6813L21.3712 22.6783C21.4655 20.9338 21.5631 19.1284 21.5993 17.3517C21.6345 15.6334 21.6189 13.8858 21.6038 12.1957L21.6038 12.1918C21.6 11.7801 21.5966 11.3684 21.5934 10.9568C21.5856 10.6449 21.5623 10.3335 21.5234 10.0239C21.5096 9.89219 21.4946 9.75699 21.4819 9.61652C22.0389 9.6005 22.596 9.57391 23.1361 9.54814L23.1546 9.54726C24.8473 9.46594 26.446 9.3892 28.0723 9.60821C28.119 9.61458 28.1657 9.61915 28.2125 9.62359C28.285 9.63065 28.3533 9.63744 28.421 9.65019C29.921 9.935 30.1429 10.2043 30.1171 11.703L30.1056 12.368L30.1042 12.453C30.0431 16.0038 29.9801 19.673 29.8652 23.2804C29.8244 24.5652 29.6676 25.8698 29.5159 27.1315L29.4699 27.5149C29.3575 28.4569 29.1702 28.6413 28.2912 28.6727C26.776 28.7265 25.2796 28.6941 23.7523 28.6528H23.7516Z" fill="#C3F0D2"/>
<path d="M26.535 10.9045C25.69 10.504 24.544 10.7009 23.8098 11.3726C23.2191 11.9128 23.0412 12.5884 23.2813 13.38C23.6155 14.4824 24.5742 15.1369 25.9114 15.1759C25.943 15.1768 25.9741 15.1773 26.005 15.1773C26.5679 15.1773 27.0123 15.0249 27.327 14.7232C27.6895 14.3759 27.8785 13.832 27.8883 13.1071V13.1017C27.8233 12.0389 27.3676 11.2989 26.535 10.9045ZM26.5627 13.1876C26.5615 13.2846 26.5403 13.3803 26.5004 13.4688C26.4606 13.5573 26.4029 13.6366 26.3311 13.7018C26.2152 13.8047 26.0801 13.8836 25.9334 13.9338C25.7867 13.9839 25.6315 14.0044 25.477 13.9941C25.0648 13.9777 24.5609 13.3539 24.5472 12.8433C24.5472 12.7561 24.5645 12.6698 24.5981 12.5894C24.6318 12.5089 24.681 12.436 24.743 12.3747C24.9457 12.1747 25.2183 12.0615 25.5031 12.0591H25.5228C25.7842 12.0615 26.0341 12.1673 26.2178 12.3534C26.3277 12.4626 26.4148 12.5926 26.4741 12.7358C26.5332 12.879 26.5634 13.0326 26.5627 13.1876Z" fill="#3A353E"/>
<path d="M26.5627 13.1876C26.5615 13.2846 26.5403 13.3803 26.5004 13.4688C26.4606 13.5573 26.4029 13.6366 26.3311 13.7018C26.2152 13.8047 26.0801 13.8836 25.9334 13.9338C25.7867 13.9839 25.6315 14.0044 25.477 13.9941C25.0648 13.9777 24.5609 13.3539 24.5472 12.8433C24.5472 12.7561 24.5645 12.6698 24.5981 12.5894C24.6318 12.5089 24.681 12.436 24.743 12.3747C24.9457 12.1747 25.2183 12.0615 25.5031 12.0591H25.5228C25.7842 12.0615 26.0341 12.1673 26.2178 12.3534C26.3277 12.4626 26.4148 12.5926 26.4741 12.7358C26.5332 12.879 26.5634 13.0326 26.5627 13.1876Z" fill="white"/>
</svg>
